<?xml version="1.0" encoding="UTF-8"?>
<!DOCTYPE svg PUBLIC "-//W3C//DTD SVG 1.1//EN" "http://www.w3.org/Graphics/SVG/1.1/DTD/svg11.dtd">
<!-- Creator: CorelDRAW 2018 (64 Bit Sem fins comerciais) -->
<svg xmlns="http://www.w3.org/2000/svg" xml:space="preserve" width="295px" height="295px" version="1.1" style="shape-rendering:geometricPrecision; text-rendering:geometricPrecision; image-rendering:optimizeQuality; fill-rule:evenodd; clip-rule:evenodd"
viewBox="0 0 86.41 86.41"
 xmlns:xlink="http://www.w3.org/1999/xlink">
 <defs>
  <style type="text/css">
   <![CDATA[
    .fil4 {fill:#F1F1F1}
    .fil0 {fill:#FFD666}
    .fil2 {fill:white}
    .fil3 {fill:white}
    .fil1 {fill:white;fill-rule:nonzero}
    .fil5 {fill:url(#id0)}
   ]]>
  </style>
  <linearGradient id="id0" gradientUnits="userSpaceOnUse" x1="26.114" y1="64.917" x2="26.114" y2="48.094">
   <stop offset="0" style="stop-opacity:1; stop-color:#4D4D4D"/>
   <stop offset="1" style="stop-opacity:1; stop-color:#9A9A9A"/>
  </linearGradient>
 </defs>
 <g id="Camada_x0020_1">
  <metadata id="CorelCorpID_0Corel-Layer"/>
  <rect class="fil0" width="86.41" height="86.41" rx="5.831" ry="3.532"/>
  <path class="fil1" d="M42.961 22.223c1.328,-2.656 2.657,-3.985 5.313,-3.985 2.933,0 5.313,2.381 5.313,5.313 0,5.313 -5.313,10.626 -10.626,15.939 -5.313,-5.313 -10.626,-10.626 -10.626,-15.939 0,-2.932 2.38,-5.313 5.313,-5.313 2.657,0 3.985,1.329 5.313,3.985z"/>
  <circle class="fil2" cx="43.205" cy="75.791" r="4.724"/>
  <circle class="fil2" cx="69.903" cy="6.4" r="0.966"/>
  <rect class="fil3" x="28.803" y="5.536" width="28.803" height="1.728" rx="1.252" ry="0.864"/>
  <g id="_2271815333616">
   <path class="fil2" d="M49.017 56.998c1.71,-0.065 3.241,-0.829 4.397,-1.612 3.447,-2.337 8.377,-4.693 12.089,-7.35 -0.956,-2.438 -2.743,-3.212 -5.547,-1.952 -2.337,1.114 -4.844,1.832 -7.387,2.466l-1.776 0.2c0.162,-0.359 0.253,-0.757 0.253,-1.176 0,-1.574 -1.276,-2.85 -2.85,-2.85l-6.092 0c-1.227,-1.105 -3.188,-1.82 -5.397,-1.82 -2.487,0 -4.659,0.907 -5.825,2.255l0 0c-1.181,1.304 -2.523,2.369 -3.909,3.364l0 0 -2.231 1.431 2.046 3.189 1.33 2.074 3.24 5.049 2.586 -1.659c1.408,-0.885 2.977,-1.348 4.693,-1.43l10.38 -0.179z"/>
   <path class="fil4" d="M50.793 48.75c0.162,-0.359 0.253,-0.757 0.253,-1.176 0,-0.841 -0.364,-1.596 -0.943,-2.118 0.419,2.185 -0.013,3.766 -2.197,4.101l-13.429 0.77 1.129 1.053 13.327 -0.744c0.85,-0.301 1.49,-0.901 1.86,-1.886z"/>
   <path class="fil4" d="M64.789 46.725c-3.577,2.184 -6.796,4.045 -10.403,6.256 -1.817,1.083 -3.861,2.072 -6.197,2.123 -3.865,0.158 -7.554,0.14 -11.145,0.025 -3.395,-0.363 -5.746,-0.133 -7.087,0.668l-0.998 0.729 2.399 3.74 2.586 -1.659c1.408,-0.885 2.977,-1.348 4.693,-1.43l10.38 -0.179c1.71,-0.065 3.241,-0.829 4.397,-1.612 3.447,-2.337 8.377,-4.693 12.089,-7.35 -0.201,-0.512 -0.438,-0.95 -0.714,-1.311z"/>
   <polygon class="fil5" points="28.876,54.542 31.489,58.615 33.187,61.262 27.49,64.918 23.353,58.469 21.654,55.821 19.042,51.749 24.738,48.094 "/>
  </g>
 </g>
</svg>
