<?xml version="1.0" encoding="UTF-8"?>
<!DOCTYPE svg PUBLIC "-//W3C//DTD SVG 1.1//EN" "http://www.w3.org/Graphics/SVG/1.1/DTD/svg11.dtd">
<!-- Creator: CorelDRAW 2018 (64 Bit Sem fins comerciais) -->
<svg xmlns="http://www.w3.org/2000/svg" xml:space="preserve" width="230px" height="268px" version="1.1" style="shape-rendering:geometricPrecision; text-rendering:geometricPrecision; image-rendering:optimizeQuality; fill-rule:evenodd; clip-rule:evenodd"
viewBox="0 0 49.386 57.617"
 xmlns:xlink="http://www.w3.org/1999/xlink">
 <defs>
  <style type="text/css">
   <![CDATA[
    .fil3 {fill:#F1F1F1}
    .fil0 {fill:#FFD666}
    .fil2 {fill:white}
    .fil1 {fill:white;fill-rule:nonzero}
    .fil4 {fill:url(#id0)}
   ]]>
  </style>
  <linearGradient id="id0" gradientUnits="userSpaceOnUse" x1="12.142" y1="40.638" x2="12.142" y2="28.283">
   <stop offset="0" style="stop-opacity:1; stop-color:#4D4D4D"/>
   <stop offset="1" style="stop-opacity:1; stop-color:#9A9A9A"/>
  </linearGradient>
 </defs>
 <g id="Camada_x0020_1">
  <metadata id="CorelCorpID_0Corel-Layer"/>
  <path class="fil0" d="M3.332 0l42.722 0c1.832,0 3.332,1.499 3.332,3.332l0 42.721c0,1.833 -1.5,3.333 -3.332,3.333l-13.13 0 -8.231 8.231 -8.232 -8.231 -13.129 0c-1.832,0 -3.332,-1.5 -3.332,-3.333l0 -42.721c0,-1.833 1.5,-3.332 3.332,-3.332z"/>
  <g id="_2271814211904">
   <path class="fil1" d="M24.514 9.284c0.975,-1.951 1.951,-2.926 3.902,-2.926 2.153,0 3.901,1.748 3.901,3.901 0,3.902 -3.901,7.804 -7.803,11.706 -3.902,-3.902 -7.804,-7.804 -7.804,-11.706 0,-2.153 1.748,-3.901 3.902,-3.901 1.951,0 2.926,0.975 3.902,2.926z"/>
   <path class="fil2" d="M28.961 34.822c1.256,-0.048 2.381,-0.608 3.229,-1.184 2.532,-1.716 6.152,-3.446 8.878,-5.397 -0.702,-1.79 -2.014,-2.359 -4.073,-1.434 -1.717,0.818 -3.558,1.346 -5.426,1.811l-1.304 0.147c0.12,-0.263 0.186,-0.556 0.186,-0.864 0,-1.156 -0.937,-2.093 -2.093,-2.093l-4.474 0c-0.901,-0.811 -2.341,-1.336 -3.963,-1.336 -1.827,0 -3.422,0.666 -4.278,1.656l0 0c-0.867,0.958 -1.853,1.739 -2.871,2.471l0 0 -1.638 1.051 1.503 2.342 0.976 1.522 2.379 3.708 1.9 -1.218c1.034,-0.65 2.186,-0.99 3.446,-1.05l7.623 -0.132z"/>
   <path class="fil3" d="M30.265 28.765c0.12,-0.263 0.186,-0.556 0.186,-0.864 0,-0.617 -0.267,-1.172 -0.692,-1.555 0.307,1.604 -0.01,2.765 -1.614,3.012l-9.862 0.566 0.83 0.773 9.787 -0.547c0.623,-0.221 1.093,-0.661 1.365,-1.385z"/>
   <path class="fil3" d="M40.544 27.278c-2.627,1.603 -4.991,2.971 -7.64,4.594 -1.335,0.795 -2.836,1.522 -4.551,1.559 -2.839,0.117 -5.547,0.103 -8.184,0.019 -2.494,-0.267 -4.22,-0.098 -5.205,0.49l-0.733 0.536 1.761 2.746 1.9 -1.218c1.034,-0.65 2.186,-0.99 3.446,-1.05l7.623 -0.132c1.256,-0.048 2.381,-0.608 3.229,-1.184 2.532,-1.716 6.152,-3.446 8.878,-5.397 -0.147,-0.376 -0.322,-0.698 -0.524,-0.963z"/>
   <polygon class="fil4" points="14.17,33.019 16.089,36.01 17.336,37.954 13.152,40.638 10.114,35.903 8.866,33.958 6.948,30.967 11.131,28.283 "/>
  </g>
 </g>
</svg>
